<?xml version="1.0" encoding="UTF-8" standalone="no"?>
<!-- Created with Inkscape (http://www.inkscape.org/) -->

<svg
   xmlns:dc="http://purl.org/dc/elements/1.1/"
   xmlns:cc="http://creativecommons.org/ns#"
   xmlns:rdf="http://www.w3.org/1999/02/22-rdf-syntax-ns#"
   xmlns:svg="http://www.w3.org/2000/svg"
   xmlns="http://www.w3.org/2000/svg"
   xmlns:xlink="http://www.w3.org/1999/xlink"
   xmlns:sodipodi="http://sodipodi.sourceforge.net/DTD/sodipodi-0.dtd"
   xmlns:inkscape="http://www.inkscape.org/namespaces/inkscape"
   viewBox="0 0 39.687499 39.687501"
   version="1.1"
   id="svg8"
   sodipodi:docname="icon.svg"
   inkscape:version="0.92.2 (5c3e80d, 2017-08-06)"
   style="shape-rendering:geometricPrecision">
  <defs
     id="defs2">
    <color-profile
       name="Adobe-RGB--1998-"
       xlink:href="C:\Windows\system32\spool\drivers\color\AdobeRGB1998.icc"
       id="color-profile2" />
    <color-profile
       id="color-profile4"
       xlink:href="C:\Windows\system32\spool\drivers\color\AdobeRGB1998.icc"
       name="Adobe-RGB--1998-" />
    <clipPath
       id="clipPath1146"
       clipPathUnits="userSpaceOnUse">
      <rect
         ry="0"
         y="86.108154"
         x="0"
         height="19.795649"
         width="28.55164"
         id="rect1148"
         style="opacity:1;vector-effect:none;fill:#ffffff;fill-opacity:1;fill-rule:evenodd;stroke:none;stroke-width:0.13229166;stroke-linecap:round;stroke-linejoin:round;stroke-miterlimit:4;stroke-dasharray:none;stroke-dashoffset:0;stroke-opacity:1;paint-order:normal" />
    </clipPath>
  </defs>
  <sodipodi:namedview
     id="base"
     pagecolor="#ffffff"
     bordercolor="#666666"
     borderopacity="1.0"
     inkscape:pageopacity="0.0"
     inkscape:pageshadow="2"
     inkscape:zoom="12.812895"
     inkscape:cx="17.580761"
     inkscape:cy="18.934193"
     inkscape:document-units="px"
     inkscape:current-layer="layer1"
     showgrid="true"
     inkscape:snap-bbox="true"
     inkscape:bbox-paths="true"
     inkscape:bbox-nodes="true"
     inkscape:snap-bbox-edge-midpoints="true"
     inkscape:snap-bbox-midpoints="true"
     inkscape:object-paths="true"
     inkscape:snap-intersection-paths="true"
     inkscape:snap-smooth-nodes="true"
     inkscape:snap-midpoints="true"
     inkscape:snap-object-midpoints="true"
     inkscape:snap-center="true"
     inkscape:snap-text-baseline="true"
     inkscape:snap-page="true"
     units="px"
     inkscape:pagecheckerboard="false"
     showborder="true"
     inkscape:snap-perpendicular="true"
     inkscape:snap-tangential="true"
     inkscape:window-width="1366"
     inkscape:window-height="706"
     inkscape:window-x="-8"
     inkscape:window-y="-8"
     inkscape:window-maximized="1"
     inkscape:showpageshadow="false">
    <inkscape:grid
       type="xygrid"
       id="grid4504" />
  </sodipodi:namedview>
  <metadata
     id="metadata5">
    <rdf:RDF>
      <cc:Work
         rdf:about="">
        <dc:format>image/svg+xml</dc:format>
        <dc:type
           rdf:resource="http://purl.org/dc/dcmitype/StillImage" />
        <dc:title></dc:title>
        <dc:creator>
          <cc:Agent>
            <dc:title>Ramiro Belmonte</dc:title>
          </cc:Agent>
        </dc:creator>
        <dc:rights>
          <cc:Agent>
            <dc:title>Ramiro Belmonte</dc:title>
          </cc:Agent>
        </dc:rights>
        <dc:publisher>
          <cc:Agent>
            <dc:title>Inkscape</dc:title>
          </cc:Agent>
        </dc:publisher>
        <dc:language>Español</dc:language>
        <dc:subject>
          <rdf:Bag>
            <rdf:li>Ramiro Belmonte</rdf:li>
          </rdf:Bag>
        </dc:subject>
      </cc:Work>
    </rdf:RDF>
  </metadata>
  <g
     inkscape:label="Capa 1"
     inkscape:groupmode="layer"
     id="layer1"
     transform="translate(0,-257.31249)">
    <path
       style="opacity:1;vector-effect:none;fill:#1a1a1a;fill-opacity:1;fill-rule:evenodd;stroke:none;stroke-width:0.43034917;stroke-linecap:round;stroke-linejoin:round;stroke-miterlimit:4;stroke-dasharray:0.43034919, 1.29104765;stroke-dashoffset:0;stroke-opacity:1;paint-order:normal;shape-rendering:geometricPrecision"
       d="M 19.84375 0 A 19.84375 19.84375 0 0 0 0 19.84375 A 19.84375 19.84375 0 0 0 19.84375 39.6875 A 19.84375 19.84375 0 0 0 39.6875 19.84375 A 19.84375 19.84375 0 0 0 19.84375 0 z M 19.830078 9.5273438 A 0.59841453 0.59841453 0 0 1 19.857422 9.5273438 A 0.59841453 0.59841453 0 0 1 20.142578 9.6074219 C 21.372374 10.313491 22.361008 11.325323 23.041016 12.513672 C 24.21412 11.83375 25.550752 11.431883 26.958984 11.433594 A 0.59841453 0.59841453 0 0 1 27.474609 11.732422 C 28.181998 12.951109 28.505777 14.310097 28.503906 15.666016 C 28.516937 15.66597 28.529937 15.664046 28.542969 15.664062 C 29.895105 15.667333 31.252044 16.019716 32.464844 16.722656 A 0.59841453 0.59841453 0 0 1 32.763672 17.238281 C 32.769206 19.557533 31.739224 21.718263 30.017578 23.189453 C 31.047809 23.792235 31.96061 24.601458 32.675781 25.599609 A 0.59841453 0.59841453 0 0 1 32.697266 25.630859 A 0.59841453 0.59841453 0 0 1 32.708984 25.650391 A 0.59841453 0.59841453 0 0 1 32.726562 25.681641 A 0.59841453 0.59841453 0 0 1 32.736328 25.703125 A 0.59841453 0.59841453 0 0 1 32.757812 25.757812 A 0.59841453 0.59841453 0 0 1 32.769531 25.792969 A 0.59841453 0.59841453 0 0 1 32.775391 25.816406 A 0.59841453 0.59841453 0 0 1 32.783203 25.851562 A 0.59841453 0.59841453 0 0 1 32.783203 25.859375 A 0.59841453 0.59841453 0 0 1 32.789062 25.912109 A 0.59841453 0.59841453 0 0 1 32.791016 25.970703 A 0.59841453 0.59841453 0 0 1 32.789062 26.015625 A 0.59841453 0.59841453 0 0 1 32.787109 26.03125 A 0.59841453 0.59841453 0 0 1 32.783203 26.052734 A 0.59841453 0.59841453 0 0 1 32.775391 26.089844 A 0.59841453 0.59841453 0 0 1 32.769531 26.111328 A 0.59841453 0.59841453 0 0 1 32.759766 26.146484 A 0.59841453 0.59841453 0 0 1 32.751953 26.167969 A 0.59841453 0.59841453 0 0 1 32.736328 26.203125 A 0.59841453 0.59841453 0 0 1 32.726562 26.222656 A 0.59841453 0.59841453 0 0 1 32.708984 26.255859 A 0.59841453 0.59841453 0 0 1 32.697266 26.275391 A 0.59841453 0.59841453 0 0 1 32.675781 26.306641 A 0.59841453 0.59841453 0 0 1 32.638672 26.351562 A 0.59841453 0.59841453 0 0 1 32.623047 26.369141 A 0.59841453 0.59841453 0 0 1 32.609375 26.380859 A 0.59841453 0.59841453 0 0 1 32.580078 26.410156 A 0.59841453 0.59841453 0 0 1 32.550781 26.433594 A 0.59841453 0.59841453 0 0 1 32.533203 26.445312 A 0.59841453 0.59841453 0 0 1 32.501953 26.466797 A 0.59841453 0.59841453 0 0 1 32.494141 26.470703 A 0.59841453 0.59841453 0 0 1 32.453125 26.492188 A 0.59841453 0.59841453 0 0 1 32.449219 26.494141 A 0.59841453 0.59841453 0 0 1 32.427734 26.503906 A 0.59841453 0.59841453 0 0 1 32.392578 26.517578 A 0.59841453 0.59841453 0 0 1 32.386719 26.519531 A 0.59841453 0.59841453 0 0 1 32.355469 26.529297 A 0.59841453 0.59841453 0 0 1 32.318359 26.537109 A 0.59841453 0.59841453 0 0 1 32.277344 26.544922 A 0.59841453 0.59841453 0 0 1 32.216797 26.550781 A 0.59841453 0.59841453 0 0 1 32.164062 26.550781 A 0.59841453 0.59841453 0 0 1 32.158203 26.550781 A 0.59841453 0.59841453 0 0 1 32.134766 26.548828 A 0.59841453 0.59841453 0 0 1 32.126953 26.546875 A 0.59841453 0.59841453 0 0 1 32.087891 26.542969 A 0.59841453 0.59841453 0 0 1 31.947266 26.498047 A 0.59841453 0.59841453 0 0 1 31.919922 26.486328 A 0.59841453 0.59841453 0 0 1 31.890625 26.46875 A 0.59841453 0.59841453 0 0 1 31.867188 26.455078 A 0.59841453 0.59841453 0 0 1 31.833984 26.431641 A 0.59841453 0.59841453 0 0 1 31.824219 26.423828 A 0.59841453 0.59841453 0 0 1 31.789062 26.394531 A 0.59841453 0.59841453 0 0 1 31.773438 26.378906 A 0.59841453 0.59841453 0 0 1 31.757812 26.363281 A 0.59841453 0.59841453 0 0 1 31.726562 26.326172 A 0.59841453 0.59841453 0 0 1 31.703125 26.296875 C 30.299493 24.337845 28.040894 23.174875 25.630859 23.171875 C 25.383838 23.17187 25.138188 23.184907 24.894531 23.208984 C 24.726109 23.225692 24.560667 23.255219 24.394531 23.283203 C 24.316628 23.296325 24.237472 23.302795 24.160156 23.318359 C 24.033387 23.343879 23.910155 23.380111 23.785156 23.412109 C 23.673742 23.440505 23.561009 23.464599 23.451172 23.498047 C 23.224856 23.567274 23.001687 23.648026 22.783203 23.738281 C 22.567661 23.827321 22.356884 23.926287 22.150391 24.035156 C 22.141863 24.039652 22.133511 24.044299 22.125 24.048828 C 21.930006 24.152598 21.740295 24.26577 21.554688 24.386719 C 21.535568 24.399177 21.515106 24.409237 21.496094 24.421875 C 21.323085 24.536876 21.155819 24.663379 20.992188 24.792969 C 20.96191 24.81692 20.930326 24.838838 20.900391 24.863281 C 20.730324 25.002285 20.566586 25.150153 20.408203 25.304688 C 20.394953 25.317616 20.380471 25.32892 20.367188 25.341797 L 20.365234 25.34375 A 0.59841453 0.59841453 0 0 1 20.363281 25.347656 A 0.59841453 0.59841453 0 0 1 20.328125 25.396484 A 0.59841453 0.59841453 0 0 1 20.289062 25.441406 A 0.59841453 0.59841453 0 0 1 20.246094 25.482422 A 0.59841453 0.59841453 0 0 1 20.228516 25.498047 A 0.59841453 0.59841453 0 0 1 20.199219 25.519531 A 0.59841453 0.59841453 0 0 1 20.195312 25.521484 A 0.59841453 0.59841453 0 0 1 20.148438 25.550781 A 0.59841453 0.59841453 0 0 1 20.09375 25.578125 A 0.59841453 0.59841453 0 0 1 20.048828 25.595703 A 0.59841453 0.59841453 0 0 1 20.039062 25.599609 A 0.59841453 0.59841453 0 0 1 20.017578 25.605469 A 0.59841453 0.59841453 0 0 1 19.980469 25.613281 A 0.59841453 0.59841453 0 0 1 19.925781 25.623047 A 0.59841453 0.59841453 0 0 1 19.921875 25.623047 A 0.59841453 0.59841453 0 0 1 19.898438 25.625 A 0.59841453 0.59841453 0 0 1 19.884766 25.625 A 0.59841453 0.59841453 0 0 1 19.845703 25.626953 A 0.59841453 0.59841453 0 0 1 19.835938 25.626953 A 0.59841453 0.59841453 0 0 1 19.607422 25.583984 A 0.59841453 0.59841453 0 0 1 19.501953 25.529297 A 0.59841453 0.59841453 0 0 1 19.453125 25.494141 A 0.59841453 0.59841453 0 0 1 19.324219 25.345703 L 19.322266 25.34375 L 19.320312 25.341797 C 19.30484 25.326476 19.287076 25.314001 19.271484 25.298828 C 19.115677 25.147198 18.956145 24.999913 18.789062 24.863281 C 18.752257 24.833215 18.713104 24.806665 18.675781 24.777344 C 18.51779 24.653076 18.358078 24.532598 18.191406 24.421875 C 18.189447 24.420576 18.187507 24.419266 18.185547 24.417969 C 18.168475 24.40665 18.149971 24.397893 18.132812 24.386719 C 17.947261 24.265878 17.757427 24.152505 17.5625 24.048828 L 17.560547 24.046875 C 17.550262 24.041409 17.539607 24.036667 17.529297 24.03125 C 17.329711 23.926377 17.125999 23.828563 16.917969 23.742188 C 16.848342 23.713376 16.775554 23.692716 16.705078 23.666016 C 16.550569 23.607269 16.396511 23.546466 16.238281 23.498047 C 16.12785 23.464387 16.01437 23.440661 15.902344 23.412109 C 15.777399 23.380141 15.654057 23.343855 15.527344 23.318359 C 15.523469 23.317583 15.519502 23.317177 15.515625 23.316406 C 15.442197 23.301754 15.366925 23.295655 15.292969 23.283203 C 15.126907 23.255245 14.961314 23.225677 14.792969 23.208984 C 14.549649 23.184858 14.303396 23.17187 14.056641 23.171875 C 12.249114 23.174455 10.525906 23.828833 9.1855469 24.982422 C 8.9621538 25.174687 8.7496258 25.380329 8.5488281 25.599609 C 8.3480304 25.818889 8.1598291 26.051996 7.984375 26.296875 A 0.59841453 0.59841453 0 0 1 7.9628906 26.326172 A 0.59841453 0.59841453 0 0 1 7.9492188 26.339844 A 0.59841453 0.59841453 0 0 1 7.921875 26.371094 A 0.59841453 0.59841453 0 0 1 7.90625 26.386719 A 0.59841453 0.59841453 0 0 1 7.8789062 26.412109 A 0.59841453 0.59841453 0 0 1 7.8613281 26.425781 A 0.59841453 0.59841453 0 0 1 7.8300781 26.449219 A 0.59841453 0.59841453 0 0 1 7.8242188 26.453125 A 0.59841453 0.59841453 0 0 1 7.7792969 26.478516 A 0.59841453 0.59841453 0 0 1 7.7421875 26.498047 A 0.59841453 0.59841453 0 0 1 7.7265625 26.505859 A 0.59841453 0.59841453 0 0 1 7.7089844 26.511719 A 0.59841453 0.59841453 0 0 1 7.6933594 26.517578 A 0.59841453 0.59841453 0 0 1 7.6484375 26.53125 A 0.59841453 0.59841453 0 0 1 7.6113281 26.541016 A 0.59841453 0.59841453 0 0 1 7.5996094 26.542969 A 0.59841453 0.59841453 0 0 1 7.5605469 26.546875 A 0.59841453 0.59841453 0 0 1 7.5527344 26.548828 A 0.59841453 0.59841453 0 0 1 7.546875 26.548828 A 0.59841453 0.59841453 0 0 1 7.4921875 26.550781 A 0.59841453 0.59841453 0 0 1 7.4707031 26.550781 A 0.59841453 0.59841453 0 0 1 7.4589844 26.548828 A 0.59841453 0.59841453 0 0 1 7.4101562 26.544922 A 0.59841453 0.59841453 0 0 1 7.3730469 26.539062 A 0.59841453 0.59841453 0 0 1 7.3691406 26.537109 A 0.59841453 0.59841453 0 0 1 7.3320312 26.529297 A 0.59841453 0.59841453 0 0 1 7.3007812 26.519531 A 0.59841453 0.59841453 0 0 1 7.2949219 26.517578 A 0.59841453 0.59841453 0 0 1 7.2421875 26.496094 A 0.59841453 0.59841453 0 0 1 7.234375 26.492188 A 0.59841453 0.59841453 0 0 1 7.1933594 26.470703 A 0.59841453 0.59841453 0 0 1 7.1542969 26.445312 A 0.59841453 0.59841453 0 0 1 7.1367188 26.433594 A 0.59841453 0.59841453 0 0 1 7.1191406 26.417969 A 0.59841453 0.59841453 0 0 1 7.0996094 26.402344 A 0.59841453 0.59841453 0 0 1 7.0898438 26.394531 A 0.59841453 0.59841453 0 0 1 7.0527344 26.355469 A 0.59841453 0.59841453 0 0 1 7.0429688 26.34375 A 0.59841453 0.59841453 0 0 1 7.0195312 26.316406 A 0.59841453 0.59841453 0 0 1 7.0019531 26.291016 A 0.59841453 0.59841453 0 0 1 6.984375 26.265625 A 0.59841453 0.59841453 0 0 1 6.9667969 26.232422 A 0.59841453 0.59841453 0 0 1 6.9570312 26.216797 A 0.59841453 0.59841453 0 0 1 6.9453125 26.189453 A 0.59841453 0.59841453 0 0 1 6.9316406 26.158203 A 0.59841453 0.59841453 0 0 1 6.9179688 26.113281 A 0.59841453 0.59841453 0 0 1 6.9179688 26.109375 A 0.59841453 0.59841453 0 0 1 6.90625 26.064453 A 0.59841453 0.59841453 0 0 1 6.9042969 26.046875 A 0.59841453 0.59841453 0 0 1 6.8984375 26.015625 A 0.59841453 0.59841453 0 0 1 6.8964844 25.970703 A 0.59841453 0.59841453 0 0 1 6.8964844 25.933594 A 0.59841453 0.59841453 0 0 1 6.9003906 25.888672 A 0.59841453 0.59841453 0 0 1 6.9023438 25.863281 A 0.59841453 0.59841453 0 0 1 6.9101562 25.828125 A 0.59841453 0.59841453 0 0 1 6.9140625 25.810547 A 0.59841453 0.59841453 0 0 1 6.9296875 25.757812 A 0.59841453 0.59841453 0 0 1 6.9511719 25.703125 A 0.59841453 0.59841453 0 0 1 6.9609375 25.681641 A 0.59841453 0.59841453 0 0 1 6.9746094 25.658203 A 0.59841453 0.59841453 0 0 1 6.9824219 25.644531 A 0.59841453 0.59841453 0 0 1 7.0117188 25.599609 C 7.7268903 24.601458 8.6392061 23.792235 9.6699219 23.189453 C 7.948258 21.718266 6.9182013 19.557551 6.9238281 17.238281 A 0.59841453 0.59841453 0 0 1 7.2226562 16.722656 C 8.4353826 16.019706 9.7923947 15.667062 11.144531 15.664062 C 11.158214 15.664041 11.171865 15.665966 11.185547 15.666016 C 11.183258 14.310091 11.505503 12.951101 12.212891 11.732422 A 0.59841453 0.59841453 0 0 1 12.728516 11.433594 C 14.13733 11.431746 15.474994 11.833193 16.648438 12.513672 C 17.328328 11.325755 18.316201 10.314043 19.544922 9.6074219 A 0.59841453 0.59841453 0 0 1 19.830078 9.5273438 z M 19.845703 10.941406 C 18.004266 12.165386 16.814294 14.160163 16.808594 16.382812 L 16.808594 16.384766 L 16.808594 16.386719 C 16.809748 16.629349 16.824156 16.871826 16.851562 17.113281 C 17.779103 16.729697 18.789414 16.516776 19.841797 16.515625 A 0.59841453 0.59841453 0 0 0 19.84375 16.515625 C 20.8974 16.516328 21.905982 16.734126 22.833984 17.119141 C 22.862464 16.875329 22.877543 16.629857 22.878906 16.384766 L 22.878906 16.382812 L 22.878906 16.380859 C 22.875707 14.158019 21.68802 12.164676 19.845703 10.941406 z M 13.109375 12.689453 C 12.620237 13.661246 12.371597 14.713064 12.380859 15.771484 C 13.308357 15.917765 14.216206 16.220098 15.056641 16.703125 A 0.59841453 0.59841453 0 0 1 15.060547 16.705078 C 15.266373 16.825031 15.461538 16.958449 15.654297 17.095703 C 15.628704 16.860482 15.612324 16.624569 15.611328 16.386719 A 0.59841453 0.59841453 0 0 1 15.611328 16.382812 C 15.613258 15.415422 15.80615 14.477882 16.142578 13.601562 C 15.230117 13.063928 14.194835 12.75283 13.109375 12.689453 z M 26.578125 12.689453 C 25.492665 12.752847 24.45895 13.063932 23.546875 13.601562 C 23.883086 14.478302 24.075341 15.416801 24.076172 16.384766 A 0.59841453 0.59841453 0 0 0 24.076172 16.386719 C 24.074996 16.625506 24.05436 16.864131 24.03125 17.101562 C 24.223208 16.961073 24.419747 16.825835 24.626953 16.705078 A 0.59841453 0.59841453 0 0 1 24.630859 16.703125 C 25.47138 16.220048 26.379043 15.917752 27.306641 15.771484 C 27.315899 14.713064 27.067262 13.661246 26.578125 12.689453 z M 11.146484 16.861328 C 10.138637 16.863758 9.1520925 17.188328 8.2246094 17.648438 C 8.3492545 19.626492 9.2850869 21.442229 10.873047 22.601562 C 11.337218 22.418581 11.816292 22.270133 12.308594 22.167969 C 12.785972 20.526588 13.785506 19.146749 15.087891 18.15625 C 14.886438 18.006011 14.677145 17.866431 14.460938 17.740234 C 13.434314 17.150204 12.293961 16.859328 11.146484 16.861328 z M 28.541016 16.861328 C 27.39497 16.859488 26.256095 17.149731 25.230469 17.738281 C 25.019505 17.861227 24.814189 17.996772 24.617188 18.142578 C 25.914373 19.13704 26.904061 20.528482 27.380859 22.167969 C 27.872438 22.270008 28.351 22.418902 28.814453 22.601562 C 30.402391 21.442235 31.338159 19.626482 31.462891 17.648438 C 30.535337 17.188318 29.548862 16.863328 28.541016 16.861328 z M 19.841797 17.712891 C 17.045885 17.717013 14.605015 19.455451 13.636719 22 C 13.776878 21.992985 13.915504 21.974811 14.056641 21.974609 C 14.333411 21.974605 14.607887 21.98931 14.880859 22.015625 C 15.027864 22.029668 15.172777 22.05473 15.318359 22.076172 C 15.441471 22.094465 15.565604 22.109262 15.6875 22.132812 C 15.846198 22.163206 16.00183 22.205037 16.158203 22.244141 C 16.265803 22.271275 16.374123 22.29495 16.480469 22.326172 C 16.652726 22.37633 16.821621 22.435441 16.990234 22.496094 C 17.069646 22.524871 17.149995 22.550951 17.228516 22.582031 C 17.430787 22.661528 17.628433 22.751236 17.824219 22.845703 C 17.853582 22.859956 17.882903 22.874087 17.912109 22.888672 C 18.126661 22.995191 18.335596 23.110218 18.541016 23.234375 C 18.561278 23.246672 18.581395 23.259019 18.601562 23.271484 C 18.813465 23.401943 19.018043 23.54259 19.21875 23.691406 C 19.221077 23.693136 19.224237 23.693581 19.226562 23.695312 C 19.229904 23.697795 19.23299 23.700637 19.236328 23.703125 C 19.445438 23.85896 19.648303 24.024013 19.84375 24.199219 C 20.039198 24.024013 20.242062 23.85896 20.451172 23.703125 C 20.456823 23.698904 20.463089 23.695613 20.46875 23.691406 C 20.669457 23.54259 20.874035 23.401943 21.085938 23.271484 C 21.106105 23.259019 21.126222 23.246672 21.146484 23.234375 C 21.351904 23.110218 21.560839 22.995191 21.775391 22.888672 C 21.804597 22.874087 21.833918 22.859956 21.863281 22.845703 C 22.059067 22.751236 22.256713 22.661528 22.458984 22.582031 C 22.537505 22.550951 22.617854 22.524871 22.697266 22.496094 C 22.865878 22.435441 23.034774 22.37633 23.207031 22.326172 C 23.313377 22.29495 23.421697 22.271275 23.529297 22.244141 C 23.68567 22.205037 23.841302 22.163206 24 22.132812 C 24.121896 22.109262 24.246029 22.094465 24.369141 22.076172 C 24.514723 22.05473 24.659636 22.029668 24.806641 22.015625 C 25.079613 21.98931 25.354089 21.974605 25.630859 21.974609 A 0.59841453 0.59841453 0 0 0 25.632812 21.974609 C 25.77395 21.974811 25.912584 21.992986 26.052734 22 C 25.084132 19.45284 22.640641 17.714691 19.841797 17.712891 z M 14.634766 25.228516 A 0.59841453 0.59841453 0 0 0 14.636719 25.228516 C 16.562735 25.227526 18.410599 25.937459 19.84375 27.201172 C 21.277245 25.937484 23.126719 25.227608 25.052734 25.228516 C 27.136962 25.231126 29.135163 26.05977 30.607422 27.53125 A 0.59841453 0.59841453 0 1 1 29.761719 28.376953 C 28.513662 27.129563 26.819078 26.427781 25.050781 26.425781 C 23.294366 26.424884 21.614059 27.117314 20.367188 28.34375 A 0.59841453 0.59841453 0 0 1 19.851562 28.628906 A 0.59841453 0.59841453 0 0 1 19.835938 28.628906 A 0.59841453 0.59841453 0 0 1 19.322266 28.347656 C 18.075205 27.11944 16.394506 26.424883 14.636719 26.425781 C 12.868422 26.428001 11.173731 27.129573 9.9257812 28.376953 A 0.59841453 0.59841453 0 1 1 9.0800781 27.53125 C 10.55225 26.05975 12.550538 25.231516 14.634766 25.228516 z "
       transform="translate(0,257.31249)"
       id="path1242" />
  </g>
</svg>
